<svg xmlns="http://www.w3.org/2000/svg" width="30" height="30" viewBox="0 0 30 30" fill="none">
  <path d="M25.9321 4.16068C25.444 3.67252 24.6525 3.67252 24.1644 4.16068L15.0464 13.2787L5.92844 4.16068C5.44029 3.67252 4.64883 3.67252 4.16068 4.16068C3.67252 4.64883 3.67252 5.44029 4.16068 5.92844L13.2786 15.0464L4.1607 24.1643C3.67254 24.6525 3.67254 25.4439 4.1607 25.9322C4.64885 26.4203 5.44032 26.4203 5.92847 25.9322L15.0464 16.8142L24.1644 25.9322C24.6525 26.4203 25.444 26.4203 25.9321 25.9322C26.4203 25.4439 26.4203 24.6525 25.9321 24.1644L16.8141 15.0464L25.9321 5.92844C26.4203 5.44029 26.4203 4.64883 25.9321 4.16068Z" fill="#6F6F6F"/>
</svg>