<svg xmlns="http://www.w3.org/2000/svg" width="61" height="61" viewBox="0 0 61 61" fill="none">
  <g clip-path="url(#clip0_85_2)">
    <path fill-rule="evenodd" clip-rule="evenodd" d="M30.7656 0.22937C47.3346 0.22937 60.7656 13.9992 60.7656 30.9882C60.7656 44.5752 52.1796 56.1012 40.2666 60.1722C38.7456 60.4752 38.2056 59.5147 38.2056 58.6957C38.2056 57.6817 38.2416 54.3698 38.2416 50.2538C38.2416 47.3858 37.2816 45.5139 36.2046 44.5599C42.8856 43.7979 49.9056 41.1967 49.9056 29.3827C49.9056 26.0227 48.7416 23.2808 46.8156 21.1268C47.1276 20.3498 48.1566 17.2212 46.5216 12.9852C46.5216 12.9852 44.0076 12.161 38.2806 16.139C35.8836 15.458 33.3156 15.1154 30.7656 15.1034C28.2156 15.1154 25.6506 15.458 23.2566 16.139C17.5236 12.161 15.0036 12.9852 15.0036 12.9852C13.3746 17.2212 14.4036 20.3498 14.7126 21.1268C12.7956 23.2808 11.6226 26.0227 11.6226 29.3827C11.6226 41.1667 18.6276 43.8078 25.2906 44.5848C24.4326 45.3528 23.6556 46.7077 23.3856 48.6967C21.6756 49.4827 17.3316 50.843 14.6556 46.142C14.6556 46.142 13.0686 43.1866 10.0566 42.9706C10.0566 42.9706 7.13162 42.9317 9.85262 44.8397C9.85262 44.8397 11.8176 45.7847 13.1826 49.3397C13.1826 49.3397 14.9436 54.8296 23.2896 52.9696C23.3046 55.5406 23.3316 57.9637 23.3316 58.6957C23.3316 59.5087 22.7796 60.4602 21.2826 60.1752C9.36062 56.1102 0.765625 44.5782 0.765625 30.9882C0.765625 13.9992 14.1996 0.22937 30.7656 0.22937Z" fill="white"/>
  </g>
  <defs>
    <clipPath id="clip0_85_2">
      <rect width="60" height="60" fill="white" transform="translate(0.765625 0.22937)"/>
    </clipPath>
  </defs>
</svg>