<svg xmlns="http://www.w3.org/2000/svg" width="60" height="60" viewBox="0 0 60 60" fill="none">
  <path fill-rule="evenodd" clip-rule="evenodd" d="M18.87 53.9994C41.511 53.9994 53.895 35.5301 53.895 19.5155C53.895 18.9897 53.895 18.468 53.859 17.9481C56.268 16.235 58.347 14.108 60 11.6742C57.756 12.6548 55.371 13.2979 52.932 13.5814C55.5 12.0662 57.423 9.68573 58.344 6.87683C55.926 8.28866 53.283 9.28507 50.526 9.8197C45.864 4.94029 38.067 4.70388 33.108 9.29382C29.913 12.2533 28.554 16.666 29.547 20.8749C19.65 20.3846 10.428 15.7829 4.176 8.21276C0.909001 13.7508 2.58 20.8329 7.989 24.389C6.03 24.3329 4.113 23.8136 2.4 22.8744V23.0282C2.403 28.7967 6.534 33.7636 12.276 34.9066C10.464 35.394 8.562 35.4646 6.72 35.1132C8.331 40.0516 12.954 43.4341 18.219 43.5316C13.86 46.9047 8.475 48.7362 2.931 48.7303C1.953 48.7274 0.975 48.6712 0 48.556C5.631 52.1122 12.18 53.9994 18.87 53.9906" fill="white"/>
</svg>